<?xml version="1.0" encoding="utf-8"?>
<!-- Generator: Adobe Illustrator 23.0.3, SVG Export Plug-In . SVG Version: 6.00 Build 0)  -->
<svg version="1.1" id="Layer_1" xmlns="http://www.w3.org/2000/svg" xmlns:xlink="http://www.w3.org/1999/xlink" x="0px" y="0px"
	 viewBox="0 0 600 900" style="enable-background:new 0 0 600 900;" xml:space="preserve">
<style type="text/css">
	.st0{fill:#ABD4ED;stroke:#000000;stroke-miterlimit:10;}
	.st1{fill:none;stroke:#000000;stroke-miterlimit:10;}
</style>
<rect class="st0" width="600" height="900"/>
<rect class="st0" width="600" height="450"/>
<rect y="822.47" class="st0" width="600" height="77.53"/>
<rect y="734.6" class="st0" width="600" height="87.88"/>
<rect x="0" y="638.64" class="st0" width="600" height="95.96"/>
<rect y="544.7" class="st0" width="600" height="93.94"/>
<rect x="120" y="0" class="st0" width="60" height="900"/>
<rect x="60" y="-1.26" class="st0" width="60" height="900"/>
<rect x="0" y="354.8" class="st0" width="600" height="93.94"/>
<rect x="0" y="-1.26" class="st0" width="60" height="900"/>
<rect x="0" y="260.86" class="st0" width="600" height="93.94"/>
<rect x="0" y="166.92" class="st0" width="600" height="93.94"/>
<rect x="360" y="0" class="st0" width="60" height="900"/>
<rect x="420" class="st0" width="60" height="900"/>
<rect x="480" class="st0" width="60" height="900"/>
<rect x="540" y="0" class="st0" width="60" height="900"/>
<rect x="180" class="st0" width="60" height="900"/>
<rect x="300" class="st0" width="60" height="900"/>
<rect x="240" class="st0" width="60" height="900"/>
<rect x="0" y="85.1" class="st0" width="600" height="81.82"/>
<line class="st1" x1="60" y1="51.77" x2="60" y2="544.7"/>
<line class="st1" x1="120" y1="67.93" x2="120" y2="536.62"/>
<line class="st1" x1="180" y1="63.89" x2="180" y2="176.01"/>
<line class="st1" x1="240" y1="63.89" x2="240" y2="194.19"/>
<line class="st1" x1="300" y1="59.85" x2="300" y2="194.19"/>
<line class="st1" x1="360" y1="51.77" x2="360" y2="176.01"/>
<line class="st1" x1="420" y1="67.93" x2="420" y2="171.97"/>
<line class="st1" x1="480" y1="67.93" x2="480" y2="194.19"/>
<line class="st1" x1="540" y1="67.93" x2="540" y2="171.97"/>
<line class="st1" x1="145.74" y1="260.86" x2="600" y2="260.86"/>
<line class="st1" x1="168.97" y1="354.8" x2="600" y2="354.8"/>
<line class="st1" x1="0" y1="448.74" x2="604.32" y2="448.74"/>
<line class="st1" x1="0" y1="544.7" x2="600" y2="544.7"/>
<line class="st1" x1="0" y1="638.64" x2="600" y2="638.64"/>
<line class="st1" x1="0" y1="730.56" x2="600" y2="734.6"/>
<line class="st1" x1="0" y1="809.34" x2="600" y2="811.36"/>
</svg>
